<svg width="256" height="256" viewBox="0 0 256 256" fill="none" xmlns="http://www.w3.org/2000/svg">
<path fill-rule="evenodd" clip-rule="evenodd" d="M0 22C0 9.84974 9.84974 0 22 0H234C246.15 0 256 9.84974 256 22V234C256 246.15 246.15 256 234 256H22C9.84974 256 0 246.15 0 234V22ZM168.57 78.875C168.57 80.4688 168.477 82.0156 168.289 83.5156C168.195 84.9219 167.914 86.4219 167.445 88.0156C166.602 88.6719 165.852 89.4688 165.195 90.4062L163.227 93.0781C162.57 93.9219 161.867 94.7656 161.117 95.6094C160.367 96.3594 159.43 96.9688 158.305 97.4375C157.367 101.562 156.195 105.547 154.789 109.391C153.477 113.141 152.492 117.078 151.836 121.203C150.711 123.266 149.82 125.516 149.164 127.953C148.508 130.391 147.805 132.875 147.055 135.406C146.398 137.844 145.648 140.188 144.805 142.438C143.961 144.688 142.789 146.703 141.289 148.484C140.539 150.734 139.789 153.172 139.039 155.797C138.289 158.328 137.023 160.438 135.242 162.125C135.336 162.312 135.383 162.594 135.383 162.969C135.383 164.094 135.102 165.172 134.539 166.203C133.977 167.141 133.695 168.125 133.695 169.156C132.195 170.281 130.742 171.594 129.336 173.094C128.023 174.594 126.664 176.094 125.258 177.594C123.852 179.094 122.352 180.406 120.758 181.531C119.164 182.656 117.43 183.406 115.555 183.781C114.242 182.844 113.023 181.766 111.898 180.547C110.773 179.422 109.461 178.484 107.961 177.734C107.211 173.516 106.742 169.391 106.555 165.359C106.461 161.234 106.133 157.156 105.57 153.125C105.195 150.781 104.586 148.531 103.742 146.375C102.992 144.219 102.617 142.016 102.617 139.766V138.359C102.711 137.797 102.805 137.281 102.898 136.812C101.961 135.781 101.352 134.516 101.07 133.016C100.789 131.422 100.555 129.828 100.367 128.234C100.18 126.547 99.8984 124.906 99.5234 123.312C99.2422 121.719 98.6797 120.359 97.8359 119.234C98.2109 118.859 98.3984 118.344 98.3984 117.688C98.3984 117.219 98.3047 116.75 98.1172 116.281C98.0234 115.812 97.9766 115.344 97.9766 114.875C97.9766 114.5 98.1172 114.078 98.3984 113.609C97.6484 112.672 97.1328 111.828 96.8516 111.078C96.6641 110.234 96.5234 109.438 96.4297 108.688L96.1484 106.156C96.1484 105.312 96.0547 104.422 95.8672 103.484C95.6797 102.828 95.3516 102.359 94.8828 102.078C94.5078 101.703 94.3203 101.422 94.3203 101.234C94.3203 100.766 94.5078 100.391 94.8828 100.109C93.5703 98.2344 92.4922 96.2656 91.6484 94.2031C90.8047 92.1406 89.8672 90.0781 88.8359 88.0156C88.9297 86.9844 89.3047 86.1875 89.9609 85.625C90.6172 85.0625 91.0859 84.3125 91.3672 83.375H95.8672C99.9922 91.4375 103.133 99.8281 105.289 108.547C107.539 117.172 109.508 125.891 111.195 134.703C111.664 137.234 112.086 139.766 112.461 142.297C112.93 144.828 113.445 147.406 114.008 150.031C114.195 150.594 114.477 151.203 114.852 151.859C115.227 152.516 115.414 153.172 115.414 153.828C115.414 154.391 115.273 154.953 114.992 155.516C115.555 155.891 115.977 156.406 116.258 157.062C116.633 157.719 116.914 158.422 117.102 159.172C117.383 159.828 117.617 160.531 117.805 161.281C117.992 161.938 118.273 162.547 118.648 163.109C119.773 163.016 120.758 162.5 121.602 161.562C122.445 160.625 123.195 159.547 123.852 158.328C124.602 157.016 125.258 155.75 125.82 154.531C126.477 153.219 127.227 152.188 128.07 151.438C128.164 150.406 128.352 149.422 128.633 148.484C129.008 147.453 129.195 146.422 129.195 145.391C130.133 143.797 130.977 142.297 131.727 140.891C132.477 139.484 132.945 137.797 133.133 135.828C133.602 135.453 133.883 135.172 133.977 134.984C134.07 134.703 134.492 134.656 135.242 134.844C135.242 132.312 135.617 129.875 136.367 127.531C137.211 125.094 138.336 122.797 139.742 120.641C139.93 118.484 140.352 116.328 141.008 114.172C141.758 111.922 142.602 109.719 143.539 107.562C143.82 106.906 144.195 106.156 144.664 105.312C145.133 104.375 145.367 103.531 145.367 102.781C145.367 102.406 145.273 102.078 145.086 101.797C144.992 101.422 144.945 101.047 144.945 100.672C144.945 99.9219 145.227 99.2656 145.789 98.7031C146.352 98.1406 146.867 97.5781 147.336 97.0156C147.336 94.8594 147.57 92.7031 148.039 90.5469C148.508 88.3906 149.445 86.5156 150.852 84.9219C151.32 81.7344 151.93 78.6406 152.68 75.6406C153.43 72.5469 154.508 69.5938 155.914 66.7812H160.977C160.977 65 161.773 64.1094 163.367 64.1094C164.305 64.1094 165.336 64.3438 166.461 64.8125C167.211 66.875 167.727 69.2188 168.008 71.8438C168.383 74.375 168.57 76.7188 168.57 78.875ZM73.1038 221.768C72.5518 221.084 71.7838 220.742 70.7998 220.742C69.9358 220.742 69.2278 221 68.6758 221.516V217.502H64.7338V219.302H65.5258V226.376H64.7338V228.176H68.4058L68.4598 227.672C69.1078 228.128 69.8518 228.356 70.6918 228.356C71.6878 228.356 72.4798 228.002 73.0678 227.294C73.6558 226.586 73.9498 225.644 73.9498 224.468C73.9498 223.352 73.6678 222.452 73.1038 221.768ZM70.3678 225.62C70.1518 225.884 69.8578 226.016 69.4858 226.016C69.1858 226.016 68.9158 225.95 68.6758 225.818V223.334C68.9038 223.166 69.1618 223.082 69.4498 223.082C69.8458 223.082 70.1518 223.208 70.3678 223.46C70.5958 223.712 70.7098 224.078 70.7098 224.558C70.7098 224.99 70.5958 225.344 70.3678 225.62ZM75.2474 226.376H74.4554V228.176H79.1354V226.376H78.3434V217.502H74.4554V219.302H75.2474V226.376ZM81.5335 227.888C82.1575 228.2 82.8715 228.356 83.6755 228.356C84.4795 228.356 85.1875 228.2 85.7995 227.888C86.4235 227.564 86.9035 227.114 87.2395 226.538C87.5755 225.962 87.7435 225.296 87.7435 224.54C87.7435 223.784 87.5755 223.118 87.2395 222.542C86.9035 221.966 86.4235 221.522 85.7995 221.21C85.1875 220.898 84.4795 220.742 83.6755 220.742C82.8715 220.742 82.1575 220.898 81.5335 221.21C80.9215 221.522 80.4475 221.966 80.1115 222.542C79.7755 223.118 79.6075 223.784 79.6075 224.54C79.6075 225.296 79.7755 225.962 80.1115 226.538C80.4475 227.114 80.9215 227.564 81.5335 227.888ZM84.5395 225.638C84.3355 225.902 84.0475 226.028 83.6755 226.016C83.3035 226.028 83.0095 225.902 82.7935 225.638C82.5895 225.374 82.4875 225.008 82.4875 224.54C82.4875 224.072 82.5895 223.712 82.7935 223.46C82.9975 223.208 83.2915 223.082 83.6755 223.082C84.0595 223.082 84.3535 223.208 84.5575 223.46C84.7615 223.712 84.8635 224.072 84.8635 224.54C84.8635 225.008 84.7555 225.374 84.5395 225.638ZM97.5602 222.722V220.922H93.8522L93.8342 221.606C93.2342 221.03 92.5262 220.742 91.7102 220.742C90.6542 220.742 89.8322 221.096 89.2442 221.804C88.6562 222.5 88.3622 223.424 88.3622 224.576C88.3622 225.74 88.6562 226.664 89.2442 227.348C89.8322 228.02 90.6602 228.356 91.7282 228.356C92.1482 228.356 92.5082 228.308 92.8082 228.212C93.1082 228.128 93.3842 227.984 93.6362 227.78V228.068C93.6362 229.136 93.1082 229.67 92.0522 229.67C91.6922 229.67 91.3382 229.64 90.9902 229.58C90.6542 229.52 90.2462 229.412 89.7662 229.256L89.2982 231.092C89.8982 231.296 90.4682 231.452 91.0082 231.56C91.5482 231.668 92.1122 231.722 92.7002 231.722C93.9962 231.722 94.9982 231.368 95.7062 230.66C96.4262 229.952 96.7862 228.932 96.7862 227.6V222.722H97.5602ZM91.9262 225.692C91.7102 225.416 91.6022 225.038 91.6022 224.558C91.6022 224.042 91.7102 223.652 91.9262 223.388C92.1422 223.124 92.4422 222.992 92.8262 222.992C93.1142 222.992 93.3842 223.082 93.6362 223.262V225.926C93.4082 226.046 93.1382 226.106 92.8262 226.106C92.4542 226.106 92.1542 225.968 91.9262 225.692ZM106.493 227.906C107.105 228.218 107.843 228.374 108.707 228.374C110.039 228.374 111.137 228.002 112.001 227.258L112.739 228.176H116.483V226.322H114.809L113.945 225.494C114.473 224.798 114.887 224.066 115.187 223.298L116.465 223.28V221.498H113.279L113.171 221.876C113.027 222.344 112.901 222.728 112.793 223.028C112.685 223.316 112.541 223.58 112.361 223.82L111.065 222.542C111.785 222.182 112.283 221.816 112.559 221.444C112.835 221.072 112.973 220.64 112.973 220.148C112.973 219.8 112.859 219.458 112.631 219.122C112.403 218.786 112.055 218.51 111.587 218.294C111.131 218.078 110.585 217.97 109.949 217.97C109.229 217.97 108.617 218.078 108.113 218.294C107.609 218.51 107.225 218.792 106.961 219.14C106.709 219.476 106.583 219.842 106.583 220.238C106.583 220.718 106.637 221.108 106.745 221.408C106.865 221.696 107.039 221.978 107.267 222.254C106.439 222.65 105.797 223.064 105.341 223.496C104.897 223.916 104.675 224.438 104.675 225.062C104.675 225.626 104.825 226.16 105.125 226.664C105.437 227.168 105.893 227.582 106.493 227.906ZM110.327 220.67C110.255 220.802 110.081 220.928 109.805 221.048C109.553 220.724 109.427 220.382 109.427 220.022C109.427 219.842 109.463 219.716 109.535 219.644C109.607 219.56 109.745 219.518 109.949 219.518C110.285 219.518 110.453 219.716 110.453 220.112C110.453 220.352 110.411 220.538 110.327 220.67ZM110.525 225.71C110.321 225.962 110.111 226.136 109.895 226.232C109.679 226.316 109.415 226.358 109.103 226.358C108.803 226.358 108.557 226.274 108.365 226.106C108.173 225.926 108.029 225.728 107.933 225.512C107.849 225.284 107.807 225.104 107.807 224.972C107.807 224.48 108.059 224.048 108.563 223.676L110.525 225.71ZM130.758 224.306C130.338 223.898 129.672 223.604 128.76 223.424L128.076 223.28C127.836 223.232 127.656 223.166 127.536 223.082C127.416 222.998 127.356 222.878 127.356 222.722C127.356 222.566 127.41 222.446 127.518 222.362C127.638 222.278 127.8 222.236 128.004 222.236C128.424 222.236 128.82 222.32 129.192 222.488L129.246 223.136H131.028V220.922H129.138V221.21C128.622 220.898 127.992 220.742 127.248 220.742C126.408 220.742 125.742 220.958 125.25 221.39C124.758 221.81 124.512 222.386 124.512 223.118C124.512 223.778 124.692 224.294 125.052 224.666C125.424 225.038 126.054 225.314 126.942 225.494L127.464 225.602C127.86 225.686 128.136 225.782 128.292 225.89C128.46 225.986 128.544 226.124 128.544 226.304C128.544 226.616 128.304 226.772 127.824 226.772C127.332 226.772 126.846 226.652 126.366 226.412L126.312 225.836H124.53V228.176H126.42V227.708C126.708 227.912 127.05 228.068 127.446 228.176C127.854 228.296 128.292 228.356 128.76 228.356C129.54 228.356 130.17 228.146 130.65 227.726C131.142 227.306 131.388 226.73 131.388 225.998C131.388 225.266 131.178 224.702 130.758 224.306ZM134.373 227.888C134.997 228.2 135.711 228.356 136.515 228.356C137.319 228.356 138.027 228.2 138.639 227.888C139.263 227.564 139.743 227.114 140.079 226.538C140.415 225.962 140.583 225.296 140.583 224.54C140.583 223.784 140.415 223.118 140.079 222.542C139.743 221.966 139.263 221.522 138.639 221.21C138.027 220.898 137.319 220.742 136.515 220.742C135.711 220.742 134.997 220.898 134.373 221.21C133.761 221.522 133.287 221.966 132.951 222.542C132.615 223.118 132.447 223.784 132.447 224.54C132.447 225.296 132.615 225.962 132.951 226.538C133.287 227.114 133.761 227.564 134.373 227.888ZM137.379 225.638C137.175 225.902 136.887 226.028 136.515 226.016C136.143 226.028 135.849 225.902 135.633 225.638C135.429 225.374 135.327 225.008 135.327 224.54C135.327 224.072 135.429 223.712 135.633 223.46C135.837 223.208 136.131 223.082 136.515 223.082C136.899 223.082 137.193 223.208 137.397 223.46C137.601 223.712 137.703 224.072 137.703 224.54C137.703 225.008 137.595 225.374 137.379 225.638ZM145.324 228.356C146.668 228.356 147.814 227.99 148.762 227.258L147.934 225.386C147.346 225.818 146.656 226.034 145.864 226.034C145.3 226.034 144.856 225.878 144.532 225.566C144.208 225.254 144.046 224.828 144.046 224.288C144.046 223.796 144.154 223.418 144.37 223.154C144.598 222.878 144.91 222.74 145.306 222.74C146.134 222.74 146.584 223.184 146.656 224.072H148.528V220.922H146.53V221.336C146.074 220.94 145.456 220.742 144.676 220.742C144.028 220.742 143.434 220.898 142.894 221.21C142.366 221.51 141.946 221.942 141.634 222.506C141.322 223.07 141.166 223.718 141.166 224.45C141.166 225.23 141.334 225.914 141.67 226.502C142.018 227.09 142.504 227.546 143.128 227.87C143.764 228.194 144.496 228.356 145.324 228.356ZM150.115 219.212C150.439 219.524 150.871 219.68 151.411 219.68C151.951 219.68 152.383 219.524 152.707 219.212C153.031 218.9 153.187 218.486 153.175 217.97C153.175 217.454 153.013 217.046 152.689 216.746C152.377 216.434 151.951 216.278 151.411 216.278C150.871 216.278 150.439 216.434 150.115 216.746C149.791 217.046 149.629 217.454 149.629 217.97C149.629 218.486 149.791 218.9 150.115 219.212ZM150.061 226.376H149.269V228.176H154.003V226.376H153.211V220.922H149.269V222.722H150.061V226.376ZM162.826 228.176V226.376H162.034V223.838C162.034 222.854 161.734 222.092 161.134 221.552C160.534 221.012 159.682 220.742 158.578 220.742C157.294 220.742 155.998 221.03 154.69 221.606L155.356 223.37C155.884 223.142 156.322 222.986 156.67 222.902C157.03 222.806 157.378 222.758 157.714 222.758C158.554 222.758 158.974 223.178 158.974 224.018V224.216C158.566 224.072 158.08 224 157.516 224C156.7 224 156.016 224.186 155.464 224.558C154.924 224.918 154.654 225.482 154.654 226.25C154.654 226.898 154.864 227.414 155.284 227.798C155.716 228.17 156.298 228.356 157.03 228.356C157.882 228.356 158.62 228.08 159.244 227.528L159.496 228.176H162.826ZM157.624 226.61C157.492 226.478 157.426 226.292 157.426 226.052C157.426 225.8 157.51 225.608 157.678 225.476C157.846 225.344 158.062 225.278 158.326 225.278C158.566 225.278 158.782 225.326 158.974 225.422V226.502C158.758 226.706 158.5 226.808 158.2 226.808C157.96 226.808 157.768 226.742 157.624 226.61ZM164.017 226.376H163.225V228.176H167.905V226.376H167.113V217.502H163.225V219.302H164.017V226.376ZM183.521 228.176V226.376H182.729V223.316C182.729 222.572 182.507 221.96 182.063 221.48C181.631 220.988 181.019 220.742 180.227 220.742C179.447 220.742 178.697 220.964 177.977 221.408V217.502H174.053V219.302H174.827V226.376H174.035V228.176H178.589V226.376H177.977V223.01C178.241 222.878 178.499 222.812 178.751 222.812C179.015 222.812 179.219 222.902 179.363 223.082C179.507 223.25 179.579 223.49 179.579 223.802V226.376H178.967V228.176H183.521ZM193.364 228.176V226.376H192.572V220.922H188.81V222.722H189.422V226.088C189.158 226.22 188.9 226.286 188.648 226.286C188.384 226.286 188.18 226.202 188.036 226.034C187.892 225.854 187.82 225.608 187.82 225.296V220.922H183.878V222.722H184.67V225.782C184.67 226.526 184.886 227.144 185.318 227.636C185.762 228.116 186.38 228.356 187.172 228.356C188.012 228.356 188.828 228.092 189.62 227.564L189.692 228.176H193.364ZM202.162 221.768C201.61 221.084 200.842 220.742 199.858 220.742C198.994 220.742 198.286 221 197.734 221.516V217.502H193.792V219.302H194.584V226.376H193.792V228.176H197.464L197.518 227.672C198.166 228.128 198.91 228.356 199.75 228.356C200.746 228.356 201.538 228.002 202.126 227.294C202.714 226.586 203.008 225.644 203.008 224.468C203.008 223.352 202.726 222.452 202.162 221.768ZM199.426 225.62C199.21 225.884 198.916 226.016 198.544 226.016C198.244 226.016 197.974 225.95 197.734 225.818V223.334C197.962 223.166 198.22 223.082 198.508 223.082C198.904 223.082 199.21 223.208 199.426 223.46C199.654 223.712 199.768 224.078 199.768 224.558C199.768 224.99 199.654 225.344 199.426 225.62Z" fill="white"/>
</svg>
