<svg width="163" height="34" viewBox="0 0 163 34" fill="none" xmlns="http://www.w3.org/2000/svg">
<path d="M20.0312 3.96875C20.0312 4.36719 20.0078 4.75391 19.9609 5.12891C19.9375 5.48047 19.8672 5.85547 19.75 6.25391C19.5391 6.41797 19.3516 6.61719 19.1875 6.85156L18.6953 7.51953C18.5312 7.73047 18.3555 7.94141 18.168 8.15234C17.9805 8.33984 17.7461 8.49219 17.4648 8.60938C17.2305 9.64062 16.9375 10.6367 16.5859 11.5977C16.2578 12.5352 16.0117 13.5195 15.8477 14.5508C15.5664 15.0664 15.3438 15.6289 15.1797 16.2383C15.0156 16.8477 14.8398 17.4688 14.6523 18.1016C14.4883 18.7109 14.3008 19.2969 14.0898 19.8594C13.8789 20.4219 13.5859 20.9258 13.2109 21.3711C13.0234 21.9336 12.8359 22.543 12.6484 23.1992C12.4609 23.832 12.1445 24.3594 11.6992 24.7812C11.7227 24.8281 11.7344 24.8984 11.7344 24.9922C11.7344 25.2734 11.6641 25.543 11.5234 25.8008C11.3828 26.0352 11.3125 26.2812 11.3125 26.5391C10.9375 26.8203 10.5742 27.1484 10.2227 27.5234C9.89453 27.8984 9.55469 28.2734 9.20312 28.6484C8.85156 29.0234 8.47656 29.3516 8.07812 29.6328C7.67969 29.9141 7.24609 30.1016 6.77734 30.1953C6.44922 29.9609 6.14453 29.6914 5.86328 29.3867C5.58203 29.1055 5.25391 28.8711 4.87891 28.6836C4.69141 27.6289 4.57422 26.5977 4.52734 25.5898C4.50391 24.5586 4.42188 23.5391 4.28125 22.5312C4.1875 21.9453 4.03516 21.3828 3.82422 20.8438C3.63672 20.3047 3.54297 19.7539 3.54297 19.1914C3.54297 19.0742 3.54297 18.957 3.54297 18.8398C3.56641 18.6992 3.58984 18.5703 3.61328 18.4531C3.37891 18.1953 3.22656 17.8789 3.15625 17.5039C3.08594 17.1055 3.02734 16.707 2.98047 16.3086C2.93359 15.8867 2.86328 15.4766 2.76953 15.0781C2.69922 14.6797 2.55859 14.3398 2.34766 14.0586C2.44141 13.9648 2.48828 13.8359 2.48828 13.6719C2.48828 13.5547 2.46484 13.4375 2.41797 13.3203C2.39453 13.2031 2.38281 13.0859 2.38281 12.9688C2.38281 12.875 2.41797 12.7695 2.48828 12.6523C2.30078 12.418 2.17188 12.207 2.10156 12.0195C2.05469 11.8086 2.01953 11.6094 1.99609 11.4219C1.97266 11.2109 1.94922 11 1.92578 10.7891C1.92578 10.5781 1.90234 10.3555 1.85547 10.1211C1.80859 9.95703 1.72656 9.83984 1.60938 9.76953C1.51562 9.67578 1.46875 9.60547 1.46875 9.55859C1.46875 9.44141 1.51562 9.34766 1.60938 9.27734C1.28125 8.80859 1.01172 8.31641 0.800781 7.80078C0.589844 7.28516 0.355469 6.76953 0.0976562 6.25391C0.121094 5.99609 0.214844 5.79688 0.378906 5.65625C0.542969 5.51562 0.660156 5.32812 0.730469 5.09375H1.85547C2.88672 7.10938 3.67188 9.20703 4.21094 11.3867C4.77344 13.543 5.26562 15.7227 5.6875 17.9258C5.80469 18.5586 5.91016 19.1914 6.00391 19.8242C6.12109 20.457 6.25 21.1016 6.39062 21.7578C6.4375 21.8984 6.50781 22.0508 6.60156 22.2148C6.69531 22.3789 6.74219 22.543 6.74219 22.707C6.74219 22.8477 6.70703 22.9883 6.63672 23.1289C6.77734 23.2227 6.88281 23.3516 6.95312 23.5156C7.04688 23.6797 7.11719 23.8555 7.16406 24.043C7.23438 24.207 7.29297 24.3828 7.33984 24.5703C7.38672 24.7344 7.45703 24.8867 7.55078 25.0273C7.83203 25.0039 8.07812 24.875 8.28906 24.6406C8.5 24.4062 8.6875 24.1367 8.85156 23.832C9.03906 23.5039 9.20312 23.1875 9.34375 22.8828C9.50781 22.5547 9.69531 22.2969 9.90625 22.1094C9.92969 21.8516 9.97656 21.6055 10.0469 21.3711C10.1406 21.1133 10.1875 20.8555 10.1875 20.5977C10.4219 20.1992 10.6328 19.8242 10.8203 19.4727C11.0078 19.1211 11.125 18.6992 11.1719 18.207C11.2891 18.1133 11.3594 18.043 11.3828 17.9961C11.4062 17.9258 11.5117 17.9141 11.6992 17.9609C11.6992 17.3281 11.793 16.7188 11.9805 16.1328C12.1914 15.5234 12.4727 14.9492 12.8242 14.4102C12.8711 13.8711 12.9766 13.332 13.1406 12.793C13.3281 12.2305 13.5391 11.6797 13.7734 11.1406C13.8438 10.9766 13.9375 10.7891 14.0547 10.5781C14.1719 10.3438 14.2305 10.1328 14.2305 9.94531C14.2305 9.85156 14.207 9.76953 14.1602 9.69922C14.1367 9.60547 14.125 9.51172 14.125 9.41797C14.125 9.23047 14.1953 9.06641 14.3359 8.92578C14.4766 8.78516 14.6055 8.64453 14.7227 8.50391C14.7227 7.96484 14.7812 7.42578 14.8984 6.88672C15.0156 6.34766 15.25 5.87891 15.6016 5.48047C15.7188 4.68359 15.8711 3.91016 16.0586 3.16016C16.2461 2.38672 16.5156 1.64844 16.8672 0.945312H18.1328C18.1328 0.5 18.332 0.277344 18.7305 0.277344C18.9648 0.277344 19.2227 0.335938 19.5039 0.453125C19.6914 0.96875 19.8203 1.55469 19.8906 2.21094C19.9844 2.84375 20.0312 3.42969 20.0312 3.96875ZM42.2148 6.64062V6.78125C42.0508 6.82812 41.9688 6.94531 41.9688 7.13281C41.7109 7.25 41.4414 7.34375 41.1602 7.41406C40.8789 7.46094 40.6094 7.54297 40.3516 7.66016C40.0938 7.63672 39.8242 7.625 39.543 7.625C39.2852 7.60156 39.0273 7.58984 38.7695 7.58984C38.0664 7.58984 37.3633 7.61328 36.6602 7.66016C35.957 7.70703 35.2539 7.70703 34.5508 7.66016C34.2227 7.84766 33.8594 8 33.4609 8.11719C33.0859 8.21094 32.7227 8.25781 32.3711 8.25781C32.0898 8.25781 31.8438 8.22266 31.6328 8.15234C31.0703 8.43359 30.4492 8.66797 29.7695 8.85547C29.1133 9.04297 28.4453 9.23047 27.7656 9.41797C27.0859 9.58203 26.4297 9.78125 25.7969 10.0156C25.1875 10.2266 24.6484 10.5312 24.1797 10.9297C24.1328 11.2578 24.0977 11.5859 24.0742 11.9141C24.0508 12.2188 24.0391 12.5234 24.0391 12.8281C24.0391 13.1562 24.0508 13.4609 24.0742 13.7422C24.1211 14.0234 24.2031 14.3047 24.3203 14.5859C24.4375 14.6328 24.5664 14.668 24.707 14.6914C24.8711 14.7148 25.0117 14.7266 25.1289 14.7266C25.2461 14.7266 25.3633 14.7148 25.4805 14.6914C25.5977 14.6445 25.6797 14.5625 25.7266 14.4453C26.0781 14.3984 26.4297 14.3867 26.7812 14.4102C27.1328 14.4102 27.4844 14.4102 27.8359 14.4102C28.1875 14.4102 28.5273 14.3984 28.8555 14.375C29.207 14.3516 29.5469 14.293 29.875 14.1992C30.25 14.1055 30.6133 14.0469 30.9648 14.0234C31.3398 14 31.7031 13.9766 32.0547 13.9531C32.4062 13.9297 32.7695 13.8945 33.1445 13.8477C33.5195 13.7773 33.9062 13.6484 34.3047 13.4609C34.6094 13.5781 34.9141 13.6367 35.2188 13.6367C35.5469 13.6367 35.8633 13.6602 36.168 13.707C36.332 13.8242 36.4609 13.9531 36.5547 14.0938C36.6719 14.2344 36.7305 14.3984 36.7305 14.5859C36.7305 14.9141 36.6133 15.2422 36.3789 15.5703C36.1445 15.8984 35.957 16.2031 35.8164 16.4844H35.4297C34.8672 16.4844 34.3164 16.5664 33.7773 16.7305C33.2617 16.8711 32.7344 17.0469 32.1953 17.2578C31.6797 17.4453 31.1523 17.6211 30.6133 17.7852C30.0977 17.9258 29.5586 17.9961 28.9961 17.9961C28.9023 17.9961 28.8438 18.0547 28.8203 18.1719C28.8203 18.2656 28.7969 18.3359 28.75 18.3828C28.6328 18.3594 28.457 18.3477 28.2227 18.3477C27.6836 18.3477 27.168 18.4062 26.6758 18.5234C26.1836 18.6406 25.6797 18.6992 25.1641 18.6992C25.0234 18.6992 24.8828 18.6992 24.7422 18.6992C24.6016 18.6758 24.4609 18.6523 24.3203 18.6289C24.2031 18.8164 24.0508 18.9453 23.8633 19.0156C23.6758 19.0625 23.5 19.1562 23.3359 19.2969C23.2656 19.5078 23.2188 19.7656 23.1953 20.0703C23.1953 20.375 23.1836 20.6914 23.1602 21.0195C23.1602 21.3242 23.1367 21.6172 23.0898 21.8984C23.043 22.1797 22.9492 22.4023 22.8086 22.5664C22.832 22.6836 22.9258 22.7305 23.0898 22.707C23.2539 22.6602 23.3359 22.7305 23.3359 22.918C23.3359 23.1289 23.3125 23.3516 23.2656 23.5859C23.2188 23.8203 23.1953 24.0547 23.1953 24.2891C23.1953 24.7344 23.2422 25.2266 23.3359 25.7656C23.4531 26.2812 23.6172 26.7617 23.8281 27.207C24.0625 27.6523 24.3672 28.0273 24.7422 28.332C25.1172 28.6133 25.5859 28.7539 26.1484 28.7539C26.5234 28.7539 26.875 28.6836 27.2031 28.543C27.5312 28.4023 27.8008 28.168 28.0117 27.8398L28.1875 27.8047C28.2812 27.8047 28.3633 27.8164 28.4336 27.8398C28.5273 27.8633 28.6211 27.875 28.7148 27.875C28.8555 27.875 29.0312 27.793 29.2422 27.6289C29.4766 27.4414 29.7227 27.2305 29.9805 26.9961C30.2617 26.7617 30.543 26.5391 30.8242 26.3281C31.1055 26.0938 31.375 25.9297 31.6328 25.8359C31.7969 25.5078 31.9492 25.1797 32.0898 24.8516C32.2539 24.5234 32.4883 24.2656 32.793 24.0781V23.0586C33.0273 22.8008 33.2734 22.5664 33.5312 22.3555C33.8125 22.1445 34.0234 21.875 34.1641 21.5469C34.2812 21.5938 34.3867 21.6289 34.4805 21.6523C34.5977 21.6758 34.7148 21.6875 34.832 21.6875C34.9492 21.6875 35.0664 21.6758 35.1836 21.6523C35.3242 21.6289 35.4531 21.5938 35.5703 21.5469C35.7578 21.8047 35.8984 22.0977 35.9922 22.4258C36.1094 22.7305 36.25 23.0234 36.4141 23.3047C36.2031 23.7266 35.957 24.2305 35.6758 24.8164C35.3945 25.4023 35.0898 25.9883 34.7617 26.5742C34.4336 27.1602 34.082 27.7227 33.707 28.2617C33.3555 28.7773 33.0039 29.1758 32.6523 29.457C32.582 29.5273 32.4297 29.6094 32.1953 29.7031C31.9375 29.8906 31.7031 30.0664 31.4922 30.2305C31.2812 30.418 31.082 30.6289 30.8945 30.8633C30.2148 31.0742 29.5586 31.3555 28.9258 31.707C28.3164 32.0586 27.707 32.3984 27.0977 32.7266C26.8164 32.6562 26.5117 32.6211 26.1836 32.6211C25.9023 32.6211 25.6211 32.6328 25.3398 32.6562C25.0586 32.7031 24.7539 32.7266 24.4258 32.7266C24.332 32.6094 24.1914 32.5273 24.0039 32.4805C23.8398 32.457 23.7812 32.3398 23.8281 32.1289C23.0312 32.082 22.3867 31.8594 21.8945 31.4609C21.4023 31.0859 20.9805 30.6172 20.6289 30.0547C20.3008 29.4922 20.0312 28.8828 19.8203 28.2266C19.6094 27.5703 19.3867 26.9375 19.1523 26.3281V26.2227C19.1523 26.1055 19.1992 26.0352 19.293 26.0117C19.3867 25.9883 19.4336 25.918 19.4336 25.8008C19.4336 25.7539 19.4219 25.7188 19.3984 25.6953C19.3281 25.4375 19.2695 25.2148 19.2227 25.0273C19.1758 24.8398 19.1523 24.6172 19.1523 24.3594C19.1523 23.9844 19.1758 23.6211 19.2227 23.2695C19.2695 22.8945 19.293 22.5195 19.293 22.1445C19.293 21.7695 19.2461 21.4414 19.1523 21.1602C19.2461 21.043 19.3281 20.8906 19.3984 20.7031C19.4453 20.4922 19.4805 20.2812 19.5039 20.0703C19.5273 19.8594 19.5391 19.6484 19.5391 19.4375C19.5625 19.2266 19.5977 19.0391 19.6445 18.875C19.5508 18.6172 19.4688 18.3945 19.3984 18.207C19.3281 17.9961 19.293 17.75 19.293 17.4688V17.2227C19.5273 16.8242 19.7266 16.4141 19.8906 15.9922C20.0547 15.5703 20.2305 15.1367 20.418 14.6914V14.5859C20.418 13.9062 20.3945 13.2266 20.3477 12.5469C20.3008 11.8672 20.2773 11.1875 20.2773 10.5078V9.83984C20.2773 9.60547 20.2891 9.38281 20.3125 9.17188C20.5 9.07812 20.6406 8.94922 20.7344 8.78516C20.8281 8.62109 20.9688 8.49219 21.1562 8.39844H22.3164L22.5273 8.04688C22.5977 7.92969 22.6445 7.80078 22.668 7.66016C22.9258 7.58984 23.1719 7.49609 23.4062 7.37891C23.6641 7.23828 23.8984 7.09766 24.1094 6.95703C24.4375 6.76953 24.7305 6.60547 24.9883 6.46484C25.2695 6.30078 25.5391 6.17188 25.7969 6.07812C26.0781 5.96094 26.3711 5.86719 26.6758 5.79688C26.9805 5.72656 27.332 5.66797 27.7305 5.62109C27.918 5.62109 28.0352 5.58594 28.082 5.51562C28.1523 5.44531 28.2461 5.36328 28.3633 5.26953C28.6445 5.31641 28.9258 5.36328 29.207 5.41016C29.4883 5.43359 29.7695 5.44531 30.0508 5.44531C30.6133 5.44531 31.1406 5.33984 31.6328 5.12891C32.3359 5.12891 33.0273 5.11719 33.707 5.09375C34.4102 5.07031 35.1133 5.05859 35.8164 5.05859C36.4258 5.05859 37.0352 5.08203 37.6445 5.12891C38.2539 5.17578 38.8516 5.25781 39.4375 5.375C39.6484 5.30469 39.8828 5.26953 40.1406 5.26953C40.4219 5.26953 40.7031 5.30469 40.9844 5.375C41.2891 5.42188 41.582 5.42188 41.8633 5.375C41.8867 5.63281 41.9453 5.85547 42.0391 6.04297C42.1562 6.20703 42.2148 6.40625 42.2148 6.64062ZM63.6602 5.90234C63.6133 6.18359 63.543 6.42969 63.4492 6.64062C63.3789 6.82812 63.3672 7.08594 63.4141 7.41406C63.1797 7.4375 62.9922 7.51953 62.8516 7.66016C62.7344 7.77734 62.6289 7.91797 62.5352 8.08203C62.4648 8.24609 62.3828 8.42188 62.2891 8.60938C62.2188 8.77344 62.125 8.92578 62.0078 9.06641C62.1953 9.91016 62.3008 10.7656 62.3242 11.6328C62.3477 12.5 62.4062 13.3555 62.5 14.1992C62.6172 15.2773 62.793 16.3438 63.0273 17.3984C63.2852 18.4297 63.4141 19.4844 63.4141 20.5625C63.4141 20.8906 63.4023 21.1953 63.3789 21.4766C63.3789 21.7578 63.3789 22.0508 63.3789 22.3555C63.3789 22.543 63.3789 22.7422 63.3789 22.9531C63.4023 23.1406 63.4141 23.3281 63.4141 23.5156C63.4141 24.1953 63.3203 24.875 63.1328 25.5547C62.9688 26.2344 62.8398 26.9141 62.7461 27.5938C62.4648 27.8516 62.2188 28.1328 62.0078 28.4375C61.8203 28.7422 61.6211 29.0234 61.4102 29.2812C61.1992 29.5391 60.9531 29.7617 60.6719 29.9492C60.3906 30.1602 60.0391 30.3008 59.6172 30.3711C59.5469 30.6055 59.4062 30.7812 59.1953 30.8984C59.0078 31.0156 58.8438 31.1797 58.7031 31.3906H58.6328C58.0469 31.3906 57.543 31.3086 57.1211 31.1445C56.6992 30.9805 56.3008 30.793 55.9258 30.582C55.5742 30.3711 55.2109 30.1484 54.8359 29.9141C54.4609 29.6797 54.0273 29.4922 53.5352 29.3516C52.8789 28.8125 52.2812 28.2266 51.7422 27.5938C51.2031 26.9375 50.5938 26.3516 49.9141 25.8359C49.75 25.3672 49.5273 24.9805 49.2461 24.6758C48.9883 24.3711 48.7305 24.0195 48.4727 23.6211C48.3555 23.457 48.2617 23.3047 48.1914 23.1641C48.1445 23.0234 48.0742 22.8594 47.9805 22.6719C47.9102 22.4844 47.793 22.3555 47.6289 22.2852C47.4883 22.2148 47.3594 22.1328 47.2422 22.0391C47.0547 21.3125 46.7852 20.6445 46.4336 20.0352C46.082 19.4258 45.6719 18.8398 45.2031 18.2773C45.0625 18.5352 44.9453 18.8164 44.8516 19.1211C44.7812 19.4023 44.7109 19.6953 44.6406 20C44.5703 20.2812 44.4766 20.5742 44.3594 20.8789C44.2656 21.1602 44.1367 21.418 43.9727 21.6523V21.7578C43.9727 21.875 44.0195 21.9453 44.1133 21.9688C44.207 21.9922 44.2539 22.0625 44.2539 22.1797C44.2539 22.2031 44.2422 22.2266 44.2188 22.25C44.2188 22.2734 44.2188 22.2969 44.2188 22.3203C44.1016 22.4141 44.0078 22.5312 43.9375 22.6719C43.8906 22.8125 43.7734 22.8945 43.5859 22.918C43.6094 23.0352 43.6211 23.1523 43.6211 23.2695V23.5859C43.6211 24.2656 43.5391 24.9453 43.375 25.625C43.2344 26.3047 43.1641 26.9961 43.1641 27.6992V28.1562C43.1641 28.3203 43.1758 28.4727 43.1992 28.6133C43.2461 28.7539 43.3164 28.8945 43.4102 29.0352C43.5039 29.1758 43.5508 29.3047 43.5508 29.4219C43.5508 29.5859 43.4805 29.7383 43.3398 29.8789C43.5039 29.9961 43.6914 30.125 43.9023 30.2656C44.1133 30.4062 44.3008 30.5586 44.4648 30.7227C44.6523 30.9102 44.8047 31.0977 44.9219 31.2852C45.0391 31.4961 45.0977 31.7188 45.0977 31.9531C45.0977 32.3516 44.9688 32.6328 44.7109 32.7969C44.4531 32.9609 44.1367 33.0898 43.7617 33.1836C43.4102 33.2773 43.0352 33.3594 42.6367 33.4297C42.2617 33.5234 41.9453 33.6758 41.6875 33.8867H41.582C41.3008 33.8867 41.0898 33.8047 40.9492 33.6406C40.8086 33.4766 40.5977 33.3945 40.3164 33.3945C39.8711 32.668 39.5664 31.8477 39.4023 30.9336C39.2383 30.043 39.1562 29.1875 39.1562 28.3672C39.1562 27.3594 39.25 26.3516 39.4375 25.3438C39.6016 24.3359 39.8125 23.3398 40.0703 22.3555C40.3047 21.3711 40.5625 20.3984 40.8438 19.4375C41.1484 18.4531 41.4297 17.4688 41.6875 16.4844L41.7227 16.3789C41.7227 16.2617 41.6875 16.1797 41.6172 16.1328C41.5703 16.0859 41.5469 16.0156 41.5469 15.9219C41.5469 15.875 41.5586 15.8516 41.582 15.8516C41.6523 15.6172 41.7227 15.3945 41.793 15.1836C41.8867 14.9727 41.957 14.7383 42.0039 14.4805C42.1445 13.8242 42.2383 13.1562 42.2852 12.4766C42.3555 11.7734 42.3906 11.082 42.3906 10.4023C42.4141 9.72266 42.4375 9.04297 42.4609 8.36328C42.5078 7.66016 42.5898 6.96875 42.707 6.28906C42.8945 6.10156 43.0703 5.90234 43.2344 5.69141C43.3984 5.48047 43.6094 5.29297 43.8672 5.12891C44.3359 5.15234 44.8047 5.22266 45.2734 5.33984C45.7422 5.45703 46.1875 5.64453 46.6094 5.90234C46.8906 6.91016 47.0781 7.91797 47.1719 8.92578C47.2891 9.93359 47.4766 10.9414 47.7344 11.9492V12.0547C47.7344 12.1719 47.793 12.2305 47.9102 12.2305C48.0508 12.207 48.1562 12.2422 48.2266 12.3359C48.1797 12.4062 48.1445 12.4883 48.1211 12.582C48.1211 12.6758 48.1211 12.7695 48.1211 12.8633V13.4609C48.168 13.6484 48.2266 13.8477 48.2969 14.0586C48.3672 14.2695 48.5195 14.3984 48.7539 14.4453C48.8711 15.1953 49.0469 15.8867 49.2812 16.5195C49.5156 17.1523 49.7852 17.7617 50.0898 18.3477C50.3945 18.9336 50.7227 19.5195 51.0742 20.1055C51.4258 20.668 51.7891 21.2656 52.1641 21.8984C52.75 22.3438 53.2539 22.8594 53.6758 23.4453C54.0977 24.0078 54.5195 24.5586 54.9414 25.0977C55.3867 25.6133 55.8789 26.0703 56.418 26.4688C56.9805 26.8672 57.707 27.1133 58.5977 27.207C58.7148 27.1133 58.7969 26.9844 58.8438 26.8203L59.0195 26.3281C59.0898 26.1641 59.1602 26.0234 59.2305 25.9062C59.3242 25.7656 59.4531 25.6602 59.6172 25.5898C59.6641 24.9336 59.7109 24.2656 59.7578 23.5859C59.8281 22.9062 59.9805 22.2617 60.2148 21.6523C60.0977 21.4414 60.0391 21.1836 60.0391 20.8789C60.0391 20.6445 60.0508 20.4219 60.0742 20.2109C60.1211 20 60.1445 19.7891 60.1445 19.5781C60.1445 19.1328 60.0508 18.7695 59.8633 18.4883C59.8633 18.3242 59.875 18.1602 59.8984 17.9961C59.9219 17.8086 59.9922 17.6328 60.1094 17.4688C59.9219 17 59.7695 16.5078 59.6523 15.9922C59.5586 15.4766 59.5117 14.9492 59.5117 14.4102C59.5117 14.1055 59.5469 13.7891 59.6172 13.4609C59.4766 13.1094 59.3828 12.6992 59.3359 12.2305L59.1953 10.7891C59.1484 10.2969 59.0781 9.83984 58.9844 9.41797C58.8906 8.99609 58.7148 8.65625 58.457 8.39844C58.5977 8.1875 58.668 7.94141 58.668 7.66016C58.668 7.19141 58.5977 6.74609 58.457 6.32422C58.3164 5.90234 58.2461 5.45703 58.2461 4.98828C58.2461 4.66016 58.3164 4.33203 58.457 4.00391C58.9727 4.02734 59.4766 4.08594 59.9688 4.17969C60.4844 4.25 60.9883 4.28516 61.4805 4.28516C61.6211 4.47266 61.7852 4.625 61.9727 4.74219C62.1602 4.85938 62.3594 4.97656 62.5703 5.09375C62.7812 5.1875 62.9805 5.29297 63.168 5.41016C63.3789 5.52734 63.543 5.69141 63.6602 5.90234ZM97.4453 6.39453C97.3516 6.69922 97.1992 6.98047 96.9883 7.23828L96.3906 7.97656C96.2031 8.21094 96.0391 8.46875 95.8984 8.75C95.7812 9.00781 95.7461 9.3125 95.793 9.66406C95.7461 9.66406 95.6875 9.66406 95.6172 9.66406C95.5469 9.64062 95.4883 9.62891 95.4414 9.62891C95.0664 9.62891 94.7734 9.72266 94.5625 9.91016C94.375 10.0742 94.1172 10.2148 93.7891 10.332C93.7422 10.1914 93.6836 10.0625 93.6133 9.94531C93.543 9.80469 93.4375 9.71094 93.2969 9.66406C92.7344 9.78125 92.1719 9.875 91.6094 9.94531C91.0469 9.99219 90.4844 10.0625 89.9219 10.1562C89.6641 10.2031 89.4062 10.2734 89.1484 10.3672C88.8906 10.4375 88.6211 10.5078 88.3398 10.5781C88.1992 10.625 88.0469 10.6484 87.8828 10.6484C87.7188 10.625 87.5547 10.625 87.3906 10.6484C86.8281 10.6719 86.2188 10.7188 85.5625 10.7891C84.9062 10.8359 84.3203 11.0117 83.8047 11.3164C83.5703 11.2695 83.3242 11.2344 83.0664 11.2109C82.8086 11.1875 82.5508 11.1758 82.293 11.1758C81.7305 11.1758 81.1094 11.2344 80.4297 11.3516C79.7734 11.4453 79.1875 11.6445 78.6719 11.9492C78.5547 11.9023 78.4258 11.8672 78.2852 11.8438C78.168 11.8203 78.0273 11.8086 77.8633 11.8086C77.8164 11.8086 77.7812 11.8203 77.7578 11.8438C77.7344 11.8438 77.6992 11.8438 77.6523 11.8438C77.6289 12.0547 77.6523 12.2656 77.7227 12.4766C77.8164 12.6641 77.9688 12.8164 78.1797 12.9336C78.0859 13.1914 78.0391 13.4727 78.0391 13.7773C78.0391 14.1758 78.0625 14.5742 78.1094 14.9727C78.1797 15.3711 78.2148 15.7695 78.2148 16.168C78.2148 16.6133 78.1562 16.9648 78.0391 17.2227C78.2734 17.9258 78.3906 18.6758 78.3906 19.4727C78.3906 19.7539 78.3672 20.0352 78.3203 20.3164C78.2969 20.5742 78.2852 20.8555 78.2852 21.1602C78.2852 21.418 78.3789 21.6289 78.5664 21.793C78.7539 21.9336 78.8477 22.1328 78.8477 22.3906C78.8477 22.4844 78.8242 22.5781 78.7773 22.6719C79.1055 22.6016 79.4219 22.5078 79.7266 22.3906C80.0312 22.25 80.3477 22.1797 80.6758 22.1797C80.8633 22.1797 81.0391 22.2148 81.2031 22.2852C81.3906 22.3555 81.5547 22.4492 81.6953 22.5664C81.6719 22.6836 81.6484 22.8125 81.625 22.9531C81.625 23.0938 81.625 23.2344 81.625 23.375C81.625 23.6328 81.625 23.8789 81.625 24.1133C81.6484 24.3242 81.6719 24.5586 81.6953 24.8164C81.5078 25.1445 81.2852 25.4375 81.0273 25.6953C80.793 25.9531 80.6289 26.2812 80.5352 26.6797C80.1836 26.6797 79.8672 26.7617 79.5859 26.9258C79.3281 27.0664 79.082 27.2305 78.8477 27.418C78.6133 27.582 78.3789 27.7461 78.1445 27.9102C77.9102 28.0508 77.6523 28.1211 77.3711 28.1211C77.0195 28.1211 76.7734 28.0742 76.6328 27.9805C76.4922 27.8633 76.3867 27.7461 76.3164 27.6289C76.2461 27.5117 76.1758 27.4062 76.1055 27.3125C76.0586 27.2188 75.9414 27.1836 75.7539 27.207C75.707 26.9023 75.6133 26.6211 75.4727 26.3633C75.332 26.082 75.1797 25.8125 75.0156 25.5547C74.875 25.2969 74.7227 25.0391 74.5586 24.7812C74.418 24.5 74.3125 24.2188 74.2422 23.9375C74.1016 23.3281 74.043 22.6953 74.0664 22.0391C74.0898 21.3828 73.9844 20.75 73.75 20.1406C73.7969 19.8125 73.832 19.4844 73.8555 19.1562C73.8789 18.8047 73.8906 18.4648 73.8906 18.1367C73.8906 17.4805 73.8672 16.8359 73.8203 16.2031C73.7969 15.5469 73.7734 14.8789 73.75 14.1992C73.5859 13.9883 73.4805 13.7539 73.4336 13.4961C73.4102 13.2148 73.3867 12.9453 73.3633 12.6875C73.293 12.6172 73.2109 12.5469 73.1172 12.4766C73.0469 12.4062 73 12.3125 72.9766 12.1953C72.7891 12.1484 72.6484 12.125 72.5547 12.125C72.2266 12.125 71.9453 12.207 71.7109 12.3711C71.5 12.5117 71.3008 12.582 71.1133 12.582C70.9258 12.582 70.75 12.5586 70.5859 12.5117C70.4219 12.4648 70.2578 12.4414 70.0938 12.4414C69.9531 12.4414 69.8711 12.4766 69.8477 12.5469C69.8477 12.5938 69.8008 12.6406 69.707 12.6875C69.6367 12.7344 69.4727 12.7812 69.2148 12.8281C68.957 12.875 68.6641 12.9219 68.3359 12.9688C68.0312 12.9922 67.7266 13.0156 67.4219 13.0391C67.1406 13.0625 66.9531 13.0742 66.8594 13.0742C66.4844 13.0742 66.2031 13.0039 66.0156 12.8633C65.8047 12.6992 65.5586 12.5234 65.2773 12.3359C65.3242 12.1953 65.3477 12.1016 65.3477 12.0547C65.3477 11.8203 65.2773 11.6328 65.1367 11.4922C64.9961 11.3281 64.9258 11.1875 64.9258 11.0703C64.9258 10.8125 65.0312 10.6133 65.2422 10.4727C65.4297 10.332 65.5352 10.1094 65.5586 9.80469C66.0977 9.57031 66.6484 9.39453 67.2109 9.27734C67.7734 9.16016 68.3477 9.06641 68.9336 8.99609C69.5195 8.92578 70.0938 8.84375 70.6562 8.75C71.2422 8.65625 71.8164 8.50391 72.3789 8.29297C72.543 8.31641 72.6953 8.33984 72.8359 8.36328C73 8.36328 73.1641 8.36328 73.3281 8.36328C74.0312 8.36328 74.7227 8.29297 75.4023 8.15234C76.1055 7.98828 76.8203 7.90625 77.5469 7.90625C77.7344 7.90625 77.9219 7.91797 78.1094 7.94141C78.2969 7.96484 78.4844 8 78.6719 8.04688C79.6094 7.90625 80.5352 7.75391 81.4492 7.58984C82.3867 7.42578 83.3477 7.28516 84.332 7.16797C84.8008 7.12109 85.2578 7.08594 85.7031 7.0625C86.1719 7.01562 86.6406 6.95703 87.1094 6.88672C87.2734 6.86328 87.3906 6.82812 87.4609 6.78125C87.5547 6.71094 87.6016 6.58203 87.6016 6.39453C87.8125 6.48828 88.0469 6.53516 88.3047 6.53516C88.7031 6.53516 89.0898 6.46484 89.4648 6.32422C89.8398 6.18359 90.2266 6.11328 90.625 6.11328C90.7188 6.11328 90.8008 6.125 90.8711 6.14844C90.9414 6.14844 91.0117 6.14844 91.082 6.14844C91.2461 6.14844 91.3281 6.07812 91.3281 5.9375C91.3516 5.77344 91.4688 5.66797 91.6797 5.62109C91.8438 5.57422 92.0781 5.53906 92.3828 5.51562C92.6875 5.49219 93.0039 5.46875 93.332 5.44531C93.6836 5.39844 94 5.35156 94.2812 5.30469C94.5859 5.23438 94.8086 5.14062 94.9492 5.02344L95.1953 4.63672C95.6172 4.66016 95.9219 4.84766 96.1094 5.19922C96.3203 5.52734 96.4375 5.89062 96.4609 6.28906C96.5547 6.38281 96.6836 6.42969 96.8477 6.42969C97.0352 6.40625 97.1992 6.39453 97.3398 6.39453H97.4453ZM114.777 8.64453C114.637 8.85547 114.555 9.08984 114.531 9.34766C114.508 9.60547 114.496 9.83984 114.496 10.0508C114.496 10.332 114.496 10.6133 114.496 10.8945C114.52 11.1523 114.531 11.4102 114.531 11.668V12.1953C114.484 12.3594 114.414 12.5234 114.32 12.6875C114.227 12.8516 114.156 13.0156 114.109 13.1797C113.781 14.0469 113.617 14.9141 113.617 15.7812V15.8516C113.5 16.1328 113.383 16.3906 113.266 16.625C113.172 16.8594 113.078 17.0938 112.984 17.3281C112.891 17.5391 112.82 17.7734 112.773 18.0312C112.727 18.2656 112.715 18.5469 112.738 18.875C112.41 19.6953 111.977 20.4453 111.438 21.125C110.898 21.7812 110.371 22.4609 109.855 23.1641C109.363 23.3516 108.906 23.5977 108.484 23.9023C108.086 24.207 107.699 24.5469 107.324 24.9219C106.598 25.1562 105.883 25.4258 105.18 25.7305C104.477 26.0352 103.844 26.4453 103.281 26.9609C102.836 27.0078 102.391 27.0781 101.945 27.1719C101.5 27.2656 101.066 27.4062 100.645 27.5938H100.223C100.012 27.5938 99.8594 27.5469 99.7656 27.4531C99.4609 27.6172 99.1445 27.7344 98.8164 27.8047C98.4883 27.8516 98.1602 27.875 97.832 27.875C97.4102 27.875 96.9883 27.8516 96.5664 27.8047C96.168 27.7344 95.7578 27.6641 95.3359 27.5938C95.1016 27.2656 94.7734 27.0195 94.3516 26.8555C93.9297 26.668 93.5547 26.4922 93.2266 26.3281C92.5469 25.3906 92.0547 24.4883 91.75 23.6211C91.4453 22.7305 91.1289 21.7344 90.8008 20.6328C90.8477 20.3047 90.9297 19.9883 91.0469 19.6836C91.1641 19.3555 91.2109 19.0039 91.1875 18.6289C91.6094 17.4102 92.1602 16.3086 92.8398 15.3242C93.543 14.3164 94.3398 13.3555 95.2305 12.4414C95.2305 12.3008 95.2539 12.1836 95.3008 12.0898C95.3711 11.9961 95.3828 11.8555 95.3359 11.668C95.3594 11.6914 95.4062 11.7031 95.4766 11.7031C95.6641 11.7031 95.7812 11.6562 95.8281 11.5625C95.875 11.4453 95.8867 11.3164 95.8633 11.1758C96.707 10.6367 97.4688 10.0156 98.1484 9.3125C98.8516 8.60938 99.6484 8.02344 100.539 7.55469C100.609 7.34375 100.727 7.16797 100.891 7.02734C101.055 6.88672 101.184 6.72266 101.277 6.53516C102.027 6.32422 102.707 6.00781 103.316 5.58594C103.926 5.16406 104.57 4.78906 105.25 4.46094C105.625 4.25 105.977 4.10938 106.305 4.03906C106.656 3.94531 107.031 3.85156 107.43 3.75781C107.57 3.71094 107.699 3.67578 107.816 3.65234C107.934 3.62891 108.062 3.61719 108.203 3.61719C108.625 3.61719 109.035 3.69922 109.434 3.86328C109.832 4.00391 110.242 4.07422 110.664 4.07422C110.781 4.07422 110.875 4.07422 110.945 4.07422C111.039 4.05078 111.133 4.02734 111.227 4.00391C111.625 4.49609 112.129 4.87109 112.738 5.12891C112.879 5.48047 113.043 5.78516 113.23 6.04297C113.441 6.30078 113.652 6.55859 113.863 6.81641C114.074 7.05078 114.262 7.32031 114.426 7.625C114.613 7.90625 114.73 8.24609 114.777 8.64453ZM111.262 10.4727C111.262 10.3555 111.25 10.25 111.227 10.1562C110.992 10.0859 110.77 9.99219 110.559 9.875C110.348 9.75781 110.113 9.69922 109.855 9.69922C109.691 9.69922 109.527 9.73438 109.363 9.80469C109.34 9.64062 109.27 9.52344 109.152 9.45312C109.059 9.38281 108.941 9.32422 108.801 9.27734C108.684 9.20703 108.555 9.16016 108.414 9.13672C108.297 9.08984 108.191 9.01953 108.098 8.92578C108.027 8.73828 107.945 8.55078 107.852 8.36328C107.781 8.15234 107.641 8 107.43 7.90625C107.219 8.11719 106.973 8.29297 106.691 8.43359C106.41 8.55078 106.117 8.66797 105.812 8.78516C105.531 8.90234 105.25 9.04297 104.969 9.20703C104.711 9.37109 104.488 9.57031 104.301 9.80469H103.668C103.527 10.0625 103.328 10.2617 103.07 10.4023C102.812 10.5195 102.59 10.6953 102.402 10.9297C102.027 11.1172 101.676 11.3516 101.348 11.6328C101.043 11.8906 100.738 12.1719 100.434 12.4766C100.129 12.7578 99.8242 13.0508 99.5195 13.3555C99.2383 13.6602 98.9336 13.9414 98.6055 14.1992C98.3008 14.8555 97.9609 15.4297 97.5859 15.9219C97.2344 16.3906 96.8945 16.8711 96.5664 17.3633C96.2617 17.8555 95.9922 18.3945 95.7578 18.9805C95.5469 19.543 95.4414 20.2461 95.4414 21.0898V21.4414C95.4414 21.5586 95.4531 21.6758 95.4766 21.793C95.7812 22.1211 96.0273 22.4727 96.2148 22.8477C96.4258 23.2227 96.7656 23.4922 97.2344 23.6562C97.7031 23.8438 98.1953 23.9258 98.7109 23.9023C99.25 23.8789 99.7656 23.9375 100.258 24.0781C101.383 23.8672 102.461 23.5273 103.492 23.0586C104.547 22.5664 105.543 21.9805 106.48 21.3008C106.621 21.1836 106.785 21.0664 106.973 20.9492C107.16 20.8086 107.312 20.668 107.43 20.5273C107.547 20.4102 107.641 20.2812 107.711 20.1406C107.805 20 107.898 19.8711 107.992 19.7539C108.18 19.4492 108.391 19.1445 108.625 18.8398C108.859 18.5352 109.105 18.2539 109.363 17.9961C109.48 17.4805 109.633 16.9883 109.82 16.5195C110.008 16.0273 110.195 15.5469 110.383 15.0781C110.57 14.6094 110.723 14.1289 110.84 13.6367C110.98 13.1445 111.051 12.6289 111.051 12.0898C111.051 11.9727 111.039 11.8438 111.016 11.7031C111.016 11.5625 111.004 11.4336 110.98 11.3164C111.168 11.0586 111.262 10.7773 111.262 10.4727ZM162.168 22.8828C162.121 23.2344 161.992 23.5039 161.781 23.6914C161.594 23.8789 161.371 24.0547 161.113 24.2188C160.996 24.1953 160.879 24.1836 160.762 24.1836C160.668 24.1602 160.562 24.1484 160.445 24.1484C159.719 24.125 159.027 24.2188 158.371 24.4297C157.738 24.6406 157.082 24.793 156.402 24.8867C156.168 24.9336 155.945 24.957 155.734 24.957C155.547 24.9336 155.348 24.9453 155.137 24.9922C154.387 25.1094 153.59 25.2031 152.746 25.2734C151.902 25.3438 151.059 25.4375 150.215 25.5547C149.371 25.6484 148.539 25.7773 147.719 25.9414C146.922 26.082 146.172 26.293 145.469 26.5742C145.398 26.5273 145.328 26.4805 145.258 26.4336C145.188 26.3633 145.105 26.3281 145.012 26.3281C144.777 26.3281 144.555 26.3633 144.344 26.4336C144.133 26.5039 143.922 26.5273 143.711 26.5039C143.477 26.6445 143.219 26.75 142.938 26.8203C142.68 26.8672 142.41 26.9141 142.129 26.9609C141.871 26.9844 141.613 27.0312 141.355 27.1016C141.098 27.1719 140.852 27.3008 140.617 27.4883C140.43 27.3945 140.195 27.3477 139.914 27.3477C139.656 27.3242 139.48 27.2305 139.387 27.0664C138.848 27.3242 138.273 27.4883 137.664 27.5586C137.078 27.6289 136.48 27.6523 135.871 27.6289C135.473 27.6055 135.016 27.5469 134.5 27.4531C133.984 27.3594 133.469 27.2305 132.953 27.0664C132.438 26.8789 131.957 26.668 131.512 26.4336C131.066 26.1758 130.727 25.8711 130.492 25.5195C130.328 25.2852 130.211 25.0273 130.141 24.7461C130.07 24.4648 129.906 24.2539 129.648 24.1133C129.719 23.5742 129.801 23.0469 129.895 22.5312C129.988 22.0156 130.082 21.4883 130.176 20.9492C130.645 20.5508 131.09 20.1289 131.512 19.6836C131.934 19.2383 132.332 18.7695 132.707 18.2773C133.152 18.0664 133.562 17.8086 133.938 17.5039C134.336 17.1992 134.723 16.8945 135.098 16.5898C135.496 16.2617 135.883 15.9453 136.258 15.6406C136.656 15.3359 137.078 15.0664 137.523 14.832C137.594 14.668 137.688 14.5391 137.805 14.4453C137.945 14.3281 138.086 14.2227 138.227 14.1289C138.367 14.0117 138.496 13.8945 138.613 13.7773C138.73 13.6367 138.812 13.4727 138.859 13.2852C139.68 12.793 140.395 12.1719 141.004 11.4219C141.613 10.6719 142.012 9.82812 142.199 8.89062C141.801 8.5625 141.344 8.35156 140.828 8.25781C140.336 8.14062 139.82 8.05859 139.281 8.01172C138.812 7.98828 138.32 7.98828 137.805 8.01172C137.312 8.03516 136.809 8.02344 136.293 7.97656C135.777 8.14062 135.238 8.24609 134.676 8.29297C134.137 8.33984 133.598 8.38672 133.059 8.43359C132.52 8.45703 131.98 8.52734 131.441 8.64453C130.926 8.73828 130.422 8.92578 129.93 9.20703C129.836 9.20703 129.742 9.19531 129.648 9.17188C129.578 9.14844 129.496 9.13672 129.402 9.13672C128.652 9.11328 127.949 9.26562 127.293 9.59375C126.637 9.89844 125.992 10.2031 125.359 10.5078C125.312 10.6016 125.289 10.6719 125.289 10.7188C125.289 10.8594 125.312 11 125.359 11.1406C125.43 11.2578 125.465 11.3867 125.465 11.5273C125.441 11.5508 125.43 11.5742 125.43 11.5977C125.43 11.6211 125.418 11.6445 125.395 11.668C125.371 11.7852 125.336 11.8906 125.289 11.9844C125.266 12.0781 125.23 12.1836 125.184 12.3008C124.926 13.0508 124.785 13.7891 124.762 14.5156C124.738 15.125 124.738 15.7227 124.762 16.3086C124.785 16.8945 124.785 17.4922 124.762 18.1016C124.715 18.8516 124.598 19.5547 124.41 20.2109C124.527 20.7734 124.633 21.3711 124.727 22.0039C124.82 22.6133 124.938 23.2227 125.078 23.832C125.219 24.4414 125.383 25.0391 125.57 25.625C125.781 26.1875 126.051 26.7266 126.379 27.2422C126.355 27.2891 126.367 27.3242 126.414 27.3477C126.461 27.3711 126.508 27.3828 126.555 27.3828H126.836C126.953 27.3828 127 27.4297 126.977 27.5234C127.023 27.5938 127.059 27.6641 127.082 27.7344C127.105 27.7812 127.152 27.8281 127.223 27.875C127.27 27.9453 127.27 28.0391 127.223 28.1562C127.199 28.625 127.082 29.0586 126.871 29.457C126.66 29.8555 126.531 30.2891 126.484 30.7578C126.203 30.8281 125.945 30.8633 125.711 30.8633C125.312 30.8398 124.961 30.7227 124.656 30.5117C124.352 30.3242 124.07 30.0898 123.812 29.8086C123.555 29.5273 123.309 29.2461 123.074 28.9648C122.84 28.6602 122.582 28.4023 122.301 28.1914C122.137 27.5352 121.973 26.8086 121.809 26.0117C121.668 25.2148 121.422 24.5352 121.07 23.9727C121.164 23.7617 121.211 23.5039 121.211 23.1992C121.234 22.7305 121.188 22.2734 121.07 21.8281C120.977 21.3594 120.953 20.8906 121 20.4219C121 20.1641 121.023 19.9062 121.07 19.6484C121.141 19.3906 121.188 19.1328 121.211 18.875C121.234 18.4766 121.188 18.0898 121.07 17.7148C120.977 17.3398 120.941 16.9531 120.965 16.5547C120.988 16.3672 121.023 16.1914 121.07 16.0273C121.141 15.8398 121.234 15.6758 121.352 15.5352C121.234 15.2539 121.199 14.9844 121.246 14.7266C121.27 14.3281 121.316 13.9531 121.387 13.6016C121.457 13.25 121.504 12.8984 121.527 12.5469C121.527 12.3594 121.516 12.1836 121.492 12.0195C121.469 11.832 121.434 11.6562 121.387 11.4922L121.07 11.3867C120.93 11.3867 120.789 11.4219 120.648 11.4922C120.531 11.5625 120.426 11.6445 120.332 11.7383C120.238 11.832 120.156 11.9141 120.086 11.9844C120.016 12.0312 119.945 12.0547 119.875 12.0547C119.828 12.0547 119.77 12.0547 119.699 12.0547C119.652 12.0312 119.605 12.0195 119.559 12.0195C119.512 12.0195 119.418 12.0664 119.277 12.1602C119.16 12.2539 119.008 12.3594 118.82 12.4766C118.656 12.5703 118.492 12.6758 118.328 12.793C118.164 12.8867 118.035 12.9453 117.941 12.9688C117.684 12.9219 117.473 12.8398 117.309 12.7227C117.168 12.582 117.027 12.4531 116.887 12.3359C116.77 12.1953 116.641 12.0781 116.5 11.9844C116.359 11.8672 116.184 11.8203 115.973 11.8438C115.902 11.7031 115.867 11.5508 115.867 11.3867C115.844 11.2227 115.844 11.0586 115.867 10.8945V10.332C116.031 10.0273 116.254 9.78125 116.535 9.59375C116.793 9.38281 117.074 9.20703 117.379 9.06641L118.293 8.64453C118.598 8.50391 118.879 8.32812 119.137 8.11719H119.453C119.875 8.14062 120.238 8.05859 120.543 7.87109C120.871 7.68359 121.176 7.47266 121.457 7.23828C121.738 6.98047 122.02 6.72266 122.301 6.46484C122.605 6.20703 122.934 6.00781 123.285 5.86719C123.543 5.98438 123.812 6.08984 124.094 6.18359C124.375 6.25391 124.668 6.30078 124.973 6.32422C125.277 6.32422 125.594 6.27734 125.922 6.18359C126.25 6.08984 126.508 5.91406 126.695 5.65625C126.812 5.70312 126.906 5.73828 126.977 5.76172C127.07 5.76172 127.176 5.76172 127.293 5.76172C127.645 5.78516 127.996 5.73828 128.348 5.62109C128.699 5.48047 129.039 5.31641 129.367 5.12891C129.836 5.15234 130.293 5.12891 130.738 5.05859C131.207 4.96484 131.664 4.87109 132.109 4.77734C132.578 4.68359 133.035 4.60156 133.48 4.53125C133.949 4.4375 134.418 4.40234 134.887 4.42578C135.66 4.44922 136.422 4.37891 137.172 4.21484C137.922 4.05078 138.684 3.99219 139.457 4.03906C139.996 4.0625 140.523 4.10938 141.039 4.17969C141.578 4.22656 142.117 4.23828 142.656 4.21484C142.961 4.35547 143.23 4.48438 143.465 4.60156C143.723 4.69531 144.039 4.71875 144.414 4.67188C145.164 5.30469 145.844 6.04297 146.453 6.88672V7.48438C146.43 8.02344 146.336 8.55078 146.172 9.06641C146.008 9.58203 145.809 10.0977 145.574 10.6133C145.363 11.1055 145.129 11.5977 144.871 12.0898C144.613 12.5586 144.367 13.0273 144.133 13.4961C142.609 14.8789 141.086 16.25 139.562 17.6094C138.039 18.9688 136.469 20.2812 134.852 21.5469C134.805 21.7812 134.734 21.9922 134.641 22.1797C134.57 22.3672 134.523 22.5664 134.5 22.7773C134.5 22.8945 134.512 22.9883 134.535 23.0586C134.699 23.1055 134.84 23.1992 134.957 23.3398C135.098 23.457 135.145 23.6211 135.098 23.832H135.414C135.531 23.832 135.59 23.8789 135.59 23.9727L136.152 24.0078C137.043 24.0547 137.934 24.0312 138.824 23.9375C139.715 23.8438 140.605 23.7383 141.496 23.6211C142.41 23.5039 143.312 23.3984 144.203 23.3047C145.094 23.1875 145.984 23.1172 146.875 23.0938C147.086 23.0234 147.309 22.9648 147.543 22.918C147.777 22.8711 147.988 22.7773 148.176 22.6367H148.281C148.445 22.6367 148.562 22.6836 148.633 22.7773C148.727 22.8711 148.855 22.9297 149.02 22.9531C149.137 22.9531 149.254 22.9297 149.371 22.8828C149.512 22.8359 149.652 22.8008 149.793 22.7773C150.121 22.6836 150.461 22.625 150.812 22.6016C151.188 22.5781 151.551 22.543 151.902 22.4961C153.262 22.3789 154.609 22.3086 155.945 22.2852C157.281 22.2383 158.617 22.0625 159.953 21.7578C160.07 21.9219 160.234 22.0391 160.445 22.1094C160.656 22.1562 160.879 22.2148 161.113 22.2852C161.348 22.332 161.559 22.3906 161.746 22.4609C161.957 22.5312 162.098 22.6719 162.168 22.8828Z" fill="white"/>
</svg>
